<?xml version="1.0" standalone="no"?><!-- Generator: Gravit.io --><svg xmlns="http://www.w3.org/2000/svg" xmlns:xlink="http://www.w3.org/1999/xlink" style="isolation:isolate" viewBox="0 0 2000 2000" width="2000px" height="2000px"><defs><clipPath id="_clipPath_XQn5XiKHDiobnuB7CmdTCj4uxnYdaH0i"><rect width="2000" height="2000"/></clipPath></defs><g clip-path="url(#_clipPath_XQn5XiKHDiobnuB7CmdTCj4uxnYdaH0i)"><path d=" M 2000 0 C 2000 0 2000 0 2000 0 L 0 0 L 0 2000 C 0 2000 0 2000 0 2000 L 2000 2000 L 2000 0 Z " fill="rgb(0,170,255)"/><path d=" M 1442.311 496.973 L 1442.311 1496.387 L 1172.975 1496.387 L 738.209 740.332 L 745.045 740 L 745.045 740 L 745.045 1496.387 L 555.689 1496.387 L 555.689 496.973 L 822.975 496.973 L 1257.057 1245.508 L 1251.588 1245.5 L 1251.588 496.973 L 1442.311 496.973 Z " fill="rgb(255,255,255)"/><path d=" M 746 1870 L 96 1870 L 96 870 L 319.145 870 L 319.145 1694.897 L 746 1694.897 L 746 1870 Z " fill="rgb(255,255,255)"/><path d=" M 1252 130 L 1902 130 L 1902 1130 L 1678.855 1130 L 1678.855 305.103 L 1252 305.103 L 1252 130 Z " fill="rgb(255,255,255)"/></g></svg>